<?xml version="1.0" encoding="UTF-8"?><svg id="Layer_2" xmlns="http://www.w3.org/2000/svg" xmlns:xlink="http://www.w3.org/1999/xlink" viewBox="0 0 146.25 138.13"><defs><style>.cls-1{fill:url(#linear-gradient);stroke-width:0px;}</style><linearGradient id="linear-gradient" x1="0" y1="69.06" x2="146.25" y2="69.06" gradientUnits="userSpaceOnUse"><stop offset=".06" stop-color="#8bc973"/><stop offset=".08" stop-color="#8cb96b"/><stop offset=".2" stop-color="#9a4935"/><stop offset=".26" stop-color="#a01d20"/><stop offset=".51" stop-color="#9f1e20"/><stop offset=".6" stop-color="#9d2523"/><stop offset=".66" stop-color="#9a3129"/><stop offset=".72" stop-color="#964230"/><stop offset=".76" stop-color="#90583a"/><stop offset=".8" stop-color="#897346"/><stop offset=".84" stop-color="#819355"/><stop offset=".87" stop-color="#78b865"/><stop offset=".88" stop-color="#76c26a"/></linearGradient></defs><g id="Layer_2-2"><path class="cls-1" d="m.87,36.39C19.71,22.04,28.83,14.35,47.68,0c5.84,37.93,11.67,75.86,17.51,113.79h11.01c6.67-37.93,13.34-75.86,20.01-113.79,16.68,14.35,33.36,28.7,50.03,43.06-5.84,8.2-11.67,16.4-17.51,24.6-6.34-3.76-12.68-7.52-19.01-11.28-2.5,8.2-5,16.4-7.51,24.6,4.67,2.39,9.34,4.78,14.01,7.18-3.67,6.32-7.34,12.64-11.01,18.96-3-1.2-6-2.39-9.01-3.59-1,3.42-2,6.83-3,10.25h53.04v24.09c-51.87-.34-94.29.51-146.16.16.17-7.69-.21-16.03-.05-23.72,18.85,0,28.79-.54,47.64-.54-4.5-23.58-9.01-47.16-13.51-70.73-14.34,8.71-18.78,11.41-33.12,20.12,0-8.71-.18-18.08-.18-26.79Z"/></g></svg>